{
  "asset": {
    "version": "2.0",
    "generator": "THREE.GLTFExporter"
  },
  "scenes": [
    {
      "name": "Scene",
      "nodes": [
        2
      ]
    }
  ],
  "scene": 0,
  "nodes": [
    {
      "name": "mesh_0",
      "mesh": 0
    },
    {
      "matrix": [
        1,
        0,
        0,
        0,
        0,
        3.422854177870249e-8,
        -0.9999999657714582,
        0,
        0,
        0.9999999657714582,
        3.422854177870249e-8,
        0,
        0,
        0,
        0,
        1
      ],
      "name": "glbxzcom-st00061",
      "extras": {
        "name": "glbxz.com-st0006.1"
      },
      "children": [
        0
      ]
    },
    {
      "name": "glbxz.com-st0006.glb",
      "children": [
        1
      ]
    }
  ],
  "bufferViews": [
    {
      "buffer": 0,
      "byteOffset": 0,
      "byteLength": 2880,
      "target": 34962,
      "byteStride": 16
    },
    {
      "buffer": 0,
      "byteOffset": 2880,
      "byteLength": 2160,
      "target": 34962,
      "byteStride": 12
    },
    {
      "buffer": 0,
      "byteOffset": 5040,
      "byteLength": 2160,
      "target": 34962,
      "byteStride": 12
    },
    {
      "buffer": 0,
      "byteOffset": 7200,
      "byteLength": 1440,
      "target": 34962,
      "byteStride": 8
    },
    {
      "buffer": 0,
      "byteOffset": 8640,
      "byteLength": 1440,
      "target": 34962,
      "byteStride": 8
    },
    {
      "buffer": 0,
      "byteOffset": 10080,
      "byteLength": 720,
      "target": 34963
    }
  ],
  "buffers": [
    {
      "byteLength": 10800,
      "uri": "data:application/octet-stream;base64,"
    }
  ],
  "accessors": [
    {
      "bufferView": 0,
      "componentType": 5126,
      "count": 180,
      "max": [
        0.9474912285804749,
        0.9707961678504944,
        0.7579079270362854,
        1
      ],
      "min": [
        -0.9982441663742065,
        -0.9548177719116211,
        -0.6456892490386963,
        -1
      ],
      "type": "VEC4"
    },
    {
      "bufferView": 1,
      "componentType": 5126,
      "count": 180,
      "max": [
        0.9142377972602844,
        0.986295759677887,
        0.9940188527107239
      ],
      "min": [
        -0.9782804250717163,
        -0.9759944677352905,
        -0.9981514811515808
      ],
      "type": "VEC3"
    },
    {
      "bufferView": 2,
      "componentType": 5126,
      "count": 180,
      "max": [
        0.3754730224609375,
        0.2183551788330078,
        0.7240157127380371
      ],
      "min": [
        -0.3754730224609375,
        -0.21705007553100586,
        0
      ],
      "type": "VEC3"
    },
    {
      "bufferView": 3,
      "componentType": 5126,
      "count": 180,
      "max": [
        1.8457289934158325,
        0.9026645421981812
      ],
      "min": [
        -0.20360144972801208,
        -0.43212854862213135
      ],
      "type": "VEC2"
    },
    {
      "bufferView": 4,
      "componentType": 5126,
      "count": 180,
      "max": [
        1.737010340020042e-39,
        1
      ],
      "min": [
        1.737010340020042e-39,
        1
      ],
      "type": "VEC2"
    },
    {
      "bufferView": 5,
      "componentType": 5125,
      "count": 180,
      "max": [
        179
      ],
      "min": [
        0
      ],
      "type": "SCALAR"
    }
  ],
  "materials": [
    {
      "pbrMetallicRoughness": {
        "baseColorTexture": {
          "index": 0
        }
      },
      "doubleSided": true,
      "extensions": {
        "KHR_materials_pbrSpecularGlossiness": {
          "specularFactor": [
            0,
            0,
            0
          ],
          "glossinessFactor": 0,
          "diffuseTexture": {
            "index": 0
          }
        }
      }
    }
  ],
  "textures": [
    {
      "sampler": 0,
      "source": 0
    }
  ],
  "samplers": [
    {
      "magFilter": 9729,
      "minFilter": 9985,
      "wrapS": 10497,
      "wrapT": 10497
    }
  ],
  "images": [
    {
      "mimeType": "image/png",
      "uri": "data:image/png;base64,"
    }
  ],
  "meshes": [
    {
      "primitives": [
        {
          "mode": 4,
          "attributes": {
            "TANGENT": 0,
            "NORMAL": 1,
            "POSITION": 2,
            "TEXCOORD_0": 3,
            "TEXCOORD_1": 4
          },
          "indices": 5,
          "material": 0
        }
      ]
    }
  ],
  "extensionsUsed": [
    "KHR_materials_pbrSpecularGlossiness"
  ]
}